<svg width="991" height="596" viewBox="0 0 991 596" fill="none" xmlns="http://www.w3.org/2000/svg">
<g clip-path="url(#clip0)">
<path d="M991 7H366V479H991V7Z" fill="#3F3D56"/>
<path d="M991 56H366V479H991V56Z" fill="#E6E8EC"/>
<path d="M990.847 480.49H364.36V7.30566H990.847V480.49ZM366.775 478.076H988.433V9.71991H366.775V478.076Z" fill="#3F3D56"/>
<path d="M394.538 45.933C401.204 45.933 406.609 40.5286 406.609 33.8619C406.609 27.1953 401.204 21.7909 394.538 21.7909C387.871 21.7909 382.467 27.1953 382.467 33.8619C382.467 40.5286 387.871 45.933 394.538 45.933Z" fill="#E6E8EC"/>
<path d="M428.337 45.933C435.004 45.933 440.408 40.5286 440.408 33.8619C440.408 27.1953 435.004 21.7909 428.337 21.7909C421.67 21.7909 416.266 27.1953 416.266 33.8619C416.266 40.5286 421.67 45.933 428.337 45.933Z" fill="#E6E8EC"/>
<path d="M462.136 45.933C468.802 45.933 474.207 40.5286 474.207 33.8619C474.207 27.1953 468.802 21.7909 462.136 21.7909C455.469 21.7909 450.065 27.1953 450.065 33.8619C450.065 40.5286 455.469 45.933 462.136 45.933Z" fill="#E6E8EC"/>
<path d="M756.912 160.503H499.312V163.397H756.912V160.503Z" fill="#3F3D56"/>
<path d="M756.912 180.764H499.312V183.658H756.912V180.764Z" fill="#3F3D56"/>
<path d="M756.912 201.024H499.312V203.919H756.912V201.024Z" fill="#3F3D56"/>
<path d="M756.912 242.586H499.312V245.48H756.912V242.586Z" fill="#3F3D56"/>
<path d="M756.912 262.847H499.312V265.741H756.912V262.847Z" fill="#3F3D56"/>
<path d="M756.912 283.107H499.312V286.002H756.912V283.107Z" fill="#3F3D56"/>
<path d="M627.737 461.176C615.084 461.176 602.715 457.424 592.194 450.395C581.673 443.365 573.473 433.373 568.631 421.683C563.789 409.993 562.522 397.129 564.99 384.719C567.459 372.309 573.552 360.909 582.499 351.962C591.447 343.015 602.846 336.921 615.256 334.453C627.667 331.984 640.53 333.251 652.22 338.093C663.91 342.936 673.902 351.136 680.932 361.657C687.962 372.177 691.714 384.547 691.714 397.2C691.695 414.162 684.948 430.423 672.955 442.417C660.961 454.411 644.699 461.157 627.737 461.176ZM627.737 335.638C615.562 335.638 603.659 339.248 593.535 346.013C583.411 352.777 575.521 362.392 570.861 373.641C566.202 384.89 564.983 397.268 567.358 409.21C569.734 421.152 575.597 432.121 584.206 440.731C592.816 449.341 603.785 455.204 615.727 457.579C627.669 459.955 640.047 458.736 651.296 454.076C662.545 449.417 672.16 441.526 678.925 431.402C685.689 421.278 689.3 409.376 689.3 397.2C689.281 380.878 682.789 365.231 671.248 353.689C659.707 342.148 644.059 335.656 627.737 335.638V335.638Z" fill="#5CDB95"/>
<path d="M659.122 394.786H630.152V365.815H625.323V394.786H596.353V399.614H625.323V428.585H630.152V399.614H659.122V394.786Z" fill="#5CDB95"/>
<path d="M122.336 432.81C122.336 432.81 96.9871 460.573 93.3658 524.549C89.7445 588.526 88.5374 595.768 88.5374 595.768H179.07L195.969 552.313L215.283 595.768H300.988C300.988 595.768 310.644 462.987 300.988 459.366C291.331 455.745 122.336 432.81 122.336 432.81Z" fill="#2F2E41"/>
<path d="M243.65 106.288C267.65 106.288 287.106 86.8323 287.106 62.8324C287.106 38.8325 267.65 19.3767 243.65 19.3767C219.65 19.3767 200.194 38.8325 200.194 62.8324C200.194 86.8323 219.65 106.288 243.65 106.288Z" fill="#FFB8B8"/>
<path d="M204.419 65.8502L195.969 143.105L255.118 150.347C255.118 150.347 257.532 82.7496 258.739 80.3354C259.946 77.9212 204.419 65.8502 204.419 65.8502Z" fill="#FFB8B8"/>
<path d="M372.207 230.016L397.556 279.507C397.556 279.507 431.355 328.999 439.804 370.04C448.254 411.082 456.704 430.395 456.704 430.395C456.704 430.395 500.159 493.165 476.017 504.029C451.875 514.893 431.355 434.017 431.355 434.017L364.964 313.306L326.337 250.537L372.207 230.016Z" fill="#FFB8B8"/>
<path d="M131.993 242.087L123.543 278.3L43.8745 383.318C43.8745 383.318 -20.102 431.602 6.45429 442.466C33.0106 453.33 65.6023 399.011 65.6023 399.011L164.585 312.099L159.756 242.087H131.993Z" fill="#FFB8B8"/>
<path d="M193.555 127.412C193.555 127.412 229.403 142.441 256.142 124.063C256.142 124.063 321.508 134.655 325.13 138.276C328.751 141.898 321.508 250.537 321.508 250.537L307.023 312.099C307.023 312.099 327.544 406.253 297.366 430.395L303.402 462.987C303.402 462.987 169.413 472.644 116.301 440.052L125.958 407.46L151.307 304.857L135.614 162.418C135.614 162.418 147.685 129.827 193.555 127.412Z" fill="#379683"/>
<path d="M294.348 143.708L325.733 138.88C325.733 138.88 341.425 141.294 355.911 171.472C370.396 201.649 386.088 241.484 386.088 241.484L331.769 265.626L287.106 195.614L294.348 143.708Z" fill="#379683"/>
<path d="M142.857 156.383L135.614 162.418C135.614 162.418 125.958 197.424 125.958 221.566V254.158L169.413 258.987L142.857 156.383Z" fill="#379683"/>
<path d="M200.207 74.6256C200.207 74.6256 194.3 68.2469 194.898 60.2615C195.292 55.719 195.001 51.1431 194.036 46.6869C194.036 46.6869 195.884 33.6169 198.614 26.0409C201.344 18.4649 199.043 15.8285 210.777 11.6925C222.512 7.55647 215.042 -7.4003 249.639 4.52119C250.954 5.84986 252.634 6.75899 254.466 7.13383C256.298 7.50867 258.2 7.33243 259.932 6.62736C266.32 4.28812 270.169 13.0632 270.169 13.0632C270.169 13.0632 274.153 9.79438 276.389 13.1928C278.624 16.5912 289.437 8.8455 293.401 33.5689C297.366 58.2924 283.755 80.3398 283.755 80.3398C283.755 80.3398 281.845 40.7765 259.376 40.0592C236.908 39.342 211.499 30.8311 208.347 47.4912C205.196 64.1514 200.207 74.6256 200.207 74.6256Z" fill="#2F2E41"/>
<path d="M463.343 351.33H9.47217V514.289H463.343V351.33Z" fill="#3F3D56"/>
<path d="M171.013 483.229C170.963 483.239 170.914 483.248 170.864 483.258C169.672 483.475 168.472 483.666 167.253 483.798C166.842 483.846 166.42 483.882 166.009 483.918C165.587 483.955 165.176 483.991 164.754 484.015C164.066 484.063 163.366 484.087 162.665 484.099C162.364 484.111 162.05 484.111 161.748 484.111H161.567C161.193 484.111 160.819 484.111 160.444 484.099C160.118 484.087 159.793 484.075 159.479 484.063C159.298 484.063 159.117 484.051 158.948 484.039C151.294 483.626 143.834 481.483 137.128 477.772C130.422 474.06 124.645 468.876 120.231 462.61C115.817 456.344 112.881 449.159 111.644 441.595C110.407 434.031 110.902 426.284 113.09 418.939C115.278 411.593 119.104 404.839 124.278 399.185C129.453 393.531 135.842 389.124 142.966 386.295C150.089 383.465 157.761 382.288 165.405 382.852C173.049 383.415 180.466 385.704 187.097 389.547C179.408 394.002 173.025 400.399 168.588 408.098C164.151 415.797 161.815 424.527 161.815 433.413C161.815 442.299 164.151 451.029 168.588 458.728C173.025 466.427 179.408 472.825 187.097 477.279C182.115 480.166 176.675 482.178 171.013 483.229V483.229Z" fill="#5CDB95"/>
<path d="M247.271 473.091C249.208 474.638 251.257 476.038 253.403 477.279C245.705 481.755 236.959 484.112 228.054 484.111H227.402C219.647 484.022 212.016 482.155 205.096 478.654C198.176 475.153 192.151 470.111 187.486 463.915C182.82 457.72 179.638 450.537 178.184 442.919C176.73 435.301 177.043 427.451 179.099 419.973C181.155 412.495 184.9 405.589 190.044 399.785C195.188 393.981 201.595 389.435 208.772 386.496C215.95 383.557 223.705 382.304 231.443 382.833C239.18 383.362 246.693 385.659 253.403 389.547C246.242 393.671 240.2 399.486 235.805 406.485C231.409 413.483 228.795 421.451 228.19 429.693C227.585 437.935 229.008 446.2 232.334 453.765C235.66 461.33 240.789 467.965 247.271 473.091V473.091Z" fill="#5CDB95"/>
<path d="M345.047 433.413C345.047 443.44 342.073 453.242 336.502 461.58C330.932 469.917 323.014 476.415 313.75 480.252C304.486 484.089 294.292 485.093 284.458 483.137C274.623 481.181 265.589 476.352 258.499 469.262C251.409 462.172 246.58 453.138 244.624 443.304C242.668 433.469 243.672 423.276 247.509 414.012C251.346 404.748 257.844 396.83 266.182 391.259C274.519 385.688 284.321 382.715 294.348 382.715C301.006 382.714 307.599 384.025 313.75 386.573C319.902 389.12 325.491 392.855 330.199 397.562C334.907 402.27 338.641 407.86 341.189 414.011C343.736 420.162 345.047 426.755 345.047 433.413Z" fill="#5CDB95"/>
<path d="M314.869 473.247C314.871 475.542 314.641 477.831 314.181 480.08C307.908 482.74 301.163 484.111 294.348 484.111C287.534 484.111 280.789 482.74 274.516 480.08C274.056 477.831 273.826 475.542 273.828 473.247C273.828 461.321 279.899 451.242 288.265 447.874C284.925 446.47 282.174 443.952 280.479 440.75C278.784 437.548 278.249 433.858 278.966 430.306C279.682 426.754 281.606 423.56 284.41 421.265C287.214 418.971 290.725 417.717 294.348 417.717C297.972 417.717 301.483 418.971 304.287 421.265C307.091 423.56 309.014 426.754 309.731 430.306C310.447 433.858 309.913 437.548 308.218 440.75C306.523 443.952 303.772 446.47 300.432 447.874C308.797 451.242 314.869 461.321 314.869 473.247Z" fill="white"/>
<path d="M247.271 473.091V473.247C247.102 476.092 246.698 478.919 246.064 481.697C240.162 484.208 234.198 484.027 227.402 484.111H226.751C219.935 484.12 213.189 482.748 206.918 480.08C206.869 479.873 206.833 479.663 206.809 479.452C206.418 477.407 206.224 475.329 206.23 473.247C206.23 461.321 212.302 451.242 220.667 447.874C217.327 446.47 214.576 443.953 212.881 440.751C211.186 437.549 210.652 433.859 211.368 430.308C212.085 426.756 214.008 423.562 216.812 421.268C219.616 418.974 223.128 417.72 226.751 417.721C227.979 417.717 229.203 417.863 230.396 418.155C227.311 427.944 227.273 438.438 230.287 448.248C233.301 458.059 239.224 466.722 247.271 473.091H247.271Z" fill="white"/>
<path d="M182.064 473.948C182.037 476.008 181.815 478.061 181.4 480.08C176.889 481.999 172.124 483.251 167.253 483.798C166.842 483.846 166.42 483.882 166.009 483.918C165.587 483.954 165.176 483.991 164.754 484.015C164.066 484.063 163.366 484.087 162.665 484.099C162.521 484.111 162.364 484.111 162.219 484.111H161.567C161.193 484.111 160.819 484.111 160.444 484.099C160.119 484.087 159.793 484.075 159.479 484.063C159.298 484.063 159.117 484.051 158.948 484.039C153.021 483.746 147.193 482.405 141.734 480.08C141.724 480.053 141.72 480.024 141.722 479.995C141.677 479.817 141.645 479.635 141.626 479.452C141.234 477.407 141.04 475.329 141.046 473.247C141.046 461.321 147.118 451.242 155.483 447.874C152.144 446.47 149.393 443.953 147.698 440.751C146.003 437.549 145.468 433.859 146.185 430.308C146.901 426.756 148.825 423.562 151.629 421.268C154.433 418.974 157.944 417.72 161.567 417.721C162.437 417.72 163.305 417.792 164.162 417.938C160.947 427.976 160.943 438.767 164.152 448.807C167.361 458.847 173.622 467.635 182.064 473.948H182.064Z" fill="white"/>
</g>
<defs>
<clipPath id="clip0">
<rect width="990.847" height="595.768" fill="white"/>
</clipPath>
</defs>
</svg>
