<svg width="30" height="24" viewBox="0 0 30 24" fill="none" xmlns="http://www.w3.org/2000/svg">
<path d="M14.1657 12H18.9239C21.1738 12 23.1946 10.4907 23.3253 8.46846C23.3612 7.91892 23.2619 7.36902 23.0345 6.85799C22.8071 6.34696 22.4572 5.88738 22.0097 5.51205C22.3922 4.86691 22.5563 4.13503 22.4816 3.40689C22.2853 1.43297 20.2749 1.70209e-09 18.0718 1.70209e-09H14.1657C13.9447 1.70209e-09 13.7328 0.0790179 13.5765 0.219671C13.4202 0.360323 13.3324 0.551089 13.3324 0.750002V11.25C13.3324 11.4489 13.4202 11.6397 13.5765 11.7804C13.7328 11.921 13.9447 12 14.1657 12ZM16.249 2.62501H18.3323C18.6638 2.62501 18.9817 2.74353 19.2161 2.95451C19.4505 3.16549 19.5822 3.45164 19.5822 3.75001C19.5822 4.04838 19.4505 4.33453 19.2161 4.54551C18.9817 4.75649 18.6638 4.87501 18.3323 4.87501H16.249V2.62501ZM16.249 7.12502H19.1656C19.4971 7.12502 19.815 7.24355 20.0494 7.45453C20.2838 7.66551 20.4155 7.95165 20.4155 8.25002C20.4155 8.54839 20.2838 8.83454 20.0494 9.04552C19.815 9.2565 19.4971 9.37503 19.1656 9.37503H16.249V7.12502ZM8.07841 1.04297C7.97078 0.740142 7.75901 0.475926 7.47368 0.288463C7.18835 0.100999 6.84422 -1.51403e-05 6.49096 1.70209e-09L5.17433 1.70209e-09C4.82107 -1.51403e-05 4.47694 0.100999 4.19161 0.288463C3.90628 0.475926 3.69452 0.740142 3.58688 1.04297L0.0302232 11.0499C-0.00403399 11.1612 -0.00924865 11.2782 0.0149859 11.3916C0.0392205 11.5051 0.092249 11.612 0.169935 11.7039C0.247621 11.7959 0.347865 11.8705 0.462846 11.9218C0.577828 11.9732 0.704439 12 0.832802 12H2.1312C2.31345 12 2.49068 11.9463 2.63573 11.847C2.78078 11.7476 2.88566 11.6083 2.9343 11.4502L3.55616 9.75003H8.10914L8.73099 11.4502C8.77963 11.6083 8.88451 11.7476 9.02956 11.847C9.17462 11.9463 9.35184 12 9.53409 12H10.8325C10.9609 12 11.0876 11.9733 11.2026 11.922C11.3177 11.8707 11.418 11.7961 11.4957 11.7041C11.5735 11.6121 11.6265 11.5052 11.6508 11.3917C11.6751 11.2783 11.6699 11.1613 11.6356 11.0499L8.07841 1.04297ZM4.65404 6.75002L5.83265 3.5297L7.01126 6.75002H4.65404ZM29.7574 12.96L27.4028 10.8366C27.3259 10.7665 27.2343 10.7109 27.1333 10.673C27.0323 10.635 26.924 10.6155 26.8145 10.6155C26.7051 10.6155 26.5968 10.635 26.4958 10.673C26.3948 10.7109 26.3032 10.7665 26.2263 10.8366L18.3359 17.9382L15.4501 15.3366C15.3731 15.2666 15.2815 15.2109 15.1805 15.173C15.0796 15.135 14.9712 15.1155 14.8618 15.1155C14.7524 15.1155 14.644 15.135 14.543 15.173C14.4421 15.2109 14.3505 15.2666 14.2735 15.3366L11.9142 17.4601C11.7585 17.6006 11.6711 17.791 11.6711 17.9895C11.6711 18.188 11.7585 18.3784 11.9142 18.519L17.7474 23.7788C17.8243 23.8489 17.916 23.9045 18.017 23.9425C18.118 23.9805 18.2264 24 18.3359 24C18.4454 24 18.5538 23.9805 18.6548 23.9425C18.7558 23.9045 18.8475 23.8489 18.9244 23.7788L29.7574 14.0189C29.913 13.8782 30.0002 13.6878 30 13.4893C29.9998 13.2908 29.9122 13.1005 29.7564 12.96H29.7574Z" fill="#379683"/>
</svg>
