<svg width="432" height="400" viewBox="0 0 432 400" fill="none" xmlns="http://www.w3.org/2000/svg">
<path d="M213.724 400C331.76 400 427.448 393.585 427.448 385.672C427.448 377.759 331.76 371.344 213.724 371.344C95.6875 371.344 0 377.759 0 385.672C0 393.585 95.6875 400 213.724 400Z" fill="#379683"/>
<path d="M217.306 229.26H210.142V233.439H217.306V229.26Z" fill="#379683"/>
<path d="M231.634 229.26H224.47V233.439H231.634V229.26Z" fill="#379683"/>
<path d="M245.962 229.26H238.798V233.439H245.962V229.26Z" fill="#379683"/>
<path d="M260.289 229.26H253.126V233.439H260.289V229.26Z" fill="#379683"/>
<path d="M274.617 229.26H267.453V233.439H274.617V229.26Z" fill="#379683"/>
<path d="M288.945 229.26H281.781V233.439H288.945V229.26Z" fill="#379683"/>
<path d="M303.273 229.26H296.109V233.439H303.273V229.26Z" fill="#379683"/>
<path d="M317.601 229.26H310.437V233.439H317.601V229.26Z" fill="#379683"/>
<path d="M331.929 229.26H324.765V233.439H331.929V229.26Z" fill="#379683"/>
<path d="M346.257 229.26H339.093V233.439H346.257V229.26Z" fill="#379683"/>
<path d="M360.585 229.26H353.421V233.439H360.585V229.26Z" fill="#379683"/>
<path d="M377.002 231.946C377.002 254.746 367.945 276.612 351.823 292.734C335.701 308.856 313.835 317.913 291.035 317.913C268.235 317.913 246.369 308.856 230.247 292.734C214.125 276.612 205.068 254.746 205.068 231.946H377.002Z" fill="#379683"/>
<path d="M372.847 232.495L318.162 69.4921C328.865 65.8936 340.172 64.4402 351.436 65.2151C362.701 65.99 373.702 68.9779 383.812 74.008C393.921 79.0381 402.939 86.0117 410.35 94.53C417.762 103.048 423.422 112.944 427.006 123.651C427.585 125.377 428.111 127.114 428.576 128.851C434.205 149.975 431.576 172.449 421.223 191.702C410.87 210.956 393.572 225.543 372.847 232.495Z" fill="#379683"/>
<path d="M374.912 245.379C380.847 245.379 385.658 240.567 385.658 234.633C385.658 228.698 380.847 223.887 374.912 223.887C368.978 223.887 364.167 228.698 364.167 234.633C364.167 240.567 368.978 245.379 374.912 245.379Z" fill="#379683"/>
<path d="M362.375 387.463L351.686 387.858L313.174 305.034L322.918 300.504L362.375 387.463Z" fill="#379683"/>
<path d="M219.694 387.463L230.384 387.858L268.896 305.034L259.152 300.504L219.694 387.463Z" fill="#379683"/>
<path d="M335.511 339.704H247.156V345.674H335.511V339.704Z" fill="#379683"/>
<path d="M320.348 66.4488C319.928 66.449 319.514 66.5476 319.139 66.7366C318.764 66.9256 318.439 67.1999 318.189 67.5373C317.939 67.8748 317.772 68.2661 317.701 68.6798C317.63 69.0935 317.657 69.5182 317.779 69.9197L320.044 77.3428C320.252 78.0237 320.723 78.594 321.351 78.9284C321.98 79.2627 322.716 79.3338 323.397 79.126C324.078 78.9182 324.649 78.4486 324.984 77.8202C325.319 77.1918 325.391 76.4561 325.184 75.7748L322.919 68.3517C322.75 67.8013 322.409 67.3196 321.946 66.9771C321.484 66.6346 320.923 66.4494 320.348 66.4488Z" fill="#379683"/>
<path d="M201.486 233.439C200.773 233.439 200.09 233.722 199.586 234.226C199.082 234.729 198.799 235.413 198.799 236.125C198.799 236.838 199.082 237.521 199.586 238.025C200.09 238.529 200.773 238.812 201.486 238.812H209.246C209.959 238.812 210.642 238.529 211.146 238.025C211.65 237.521 211.933 236.838 211.933 236.125C211.933 235.413 211.65 234.729 211.146 234.226C210.642 233.722 209.959 233.439 209.246 233.439H201.486Z" fill="#379683"/>
<path d="M265.662 213.738H233.425C233.222 213.738 233.025 213.744 232.828 213.762C230.722 213.912 228.75 214.854 227.31 216.399C225.871 217.943 225.069 219.976 225.067 222.087C225.065 224.199 225.862 226.233 227.298 227.781C228.735 229.328 230.704 230.275 232.81 230.43C233.013 230.448 233.216 230.454 233.425 230.454H265.662C267.879 230.454 270.005 229.573 271.572 228.006C273.14 226.438 274.02 224.312 274.02 222.096C274.02 219.879 273.14 217.753 271.572 216.186C270.005 214.618 267.879 213.738 265.662 213.738Z" fill="#FF6584"/>
<path opacity="0.2" d="M230.177 229.791C235.67 229.087 239.992 222.155 239.992 213.738H238.798C238.798 221.97 234.511 228.663 229.246 228.663V229.331L230.177 229.791Z" fill="black"/>
<path opacity="0.2" d="M241.783 229.857V228.663C247.05 228.663 251.335 221.967 251.335 213.738H252.529C252.529 222.626 247.708 229.857 241.783 229.857Z" fill="black"/>
<path opacity="0.2" d="M254.32 229.857V228.663C259.586 228.663 263.872 221.967 263.872 213.738H265.065C265.065 222.626 260.245 229.857 254.32 229.857Z" fill="black"/>
<path d="M324.168 213.738H291.93C291.727 213.738 291.53 213.744 291.333 213.762C289.227 213.912 287.256 214.854 285.816 216.399C284.376 217.943 283.574 219.976 283.572 222.087C283.57 224.199 284.367 226.233 285.804 227.781C287.24 229.328 289.209 230.275 291.315 230.43C291.518 230.448 291.721 230.454 291.93 230.454H324.168C326.385 230.454 328.51 229.573 330.078 228.006C331.645 226.438 332.526 224.312 332.526 222.096C332.526 219.879 331.645 217.753 330.078 216.186C328.51 214.618 326.385 213.738 324.168 213.738Z" fill="#FF6584"/>
<path opacity="0.2" d="M288.683 229.791C294.175 229.087 298.497 222.155 298.497 213.738H297.303C297.303 221.97 293.017 228.663 287.751 228.663V229.331L288.683 229.791Z" fill="black"/>
<path opacity="0.2" d="M300.288 229.857V228.663C305.555 228.663 309.84 221.967 309.84 213.738H311.034C311.034 222.626 306.213 229.857 300.288 229.857Z" fill="black"/>
<path opacity="0.2" d="M312.825 229.857V228.663C318.092 228.663 322.377 221.967 322.377 213.738H323.571C323.571 222.626 318.75 229.857 312.825 229.857Z" fill="black"/>
<path d="M263.303 133.476C259.078 131.193 253.855 133.683 251.749 137.723C249.189 142.637 251.311 148.545 254.297 152.746C257.401 157.111 261.612 160.714 263.684 165.758C265.665 170.505 265.9 175.801 264.347 180.704C262.793 185.608 259.552 189.803 255.199 192.543C253.256 193.772 255.051 196.873 257.007 195.636C261.276 192.969 264.654 189.089 266.709 184.494C268.764 179.898 269.403 174.794 268.544 169.833C268.108 167.261 267.276 164.771 266.079 162.453C264.781 160.087 263.217 157.877 261.418 155.865C258.31 152.187 254.398 148.133 254.203 143.016C254.168 142.352 254.214 141.686 254.341 141.034C254.434 140.578 254.573 140.133 254.755 139.705C255.189 138.785 255.834 137.981 256.636 137.357C257.38 136.763 258.261 136.365 259.198 136.197C259.984 136.08 260.786 136.21 261.495 136.569C263.523 137.665 265.334 134.573 263.303 133.476Z" fill="#E6E6E6"/>
<path d="M317.202 155.143C315.403 154.565 313.481 154.486 311.64 154.913C309.8 155.341 308.109 156.26 306.75 157.572C306.047 158.295 305.526 159.175 305.231 160.138C304.936 161.102 304.875 162.123 305.052 163.115C305.393 165.285 306.764 167.213 308.251 168.767C311.16 171.807 315.231 173.773 317.671 177.263C318.752 178.75 319.431 180.491 319.641 182.318C319.766 183.96 319.465 185.606 318.767 187.097C316.947 190.796 313.335 193.311 309.525 194.931C308.635 195.31 308.439 196.622 308.883 197.381C309.131 197.782 309.524 198.072 309.98 198.192C310.436 198.312 310.92 198.251 311.333 198.024C318.344 195.044 324.831 188.368 322.897 180.167C321.88 175.852 318.762 172.807 315.405 170.161C313.737 168.938 312.162 167.594 310.693 166.14C309.532 164.907 308.326 163.223 308.539 161.552C308.625 160.971 308.909 160.437 309.344 160.043C309.871 159.56 310.47 159.163 311.118 158.863C311.914 158.482 312.777 158.262 313.657 158.217C314.538 158.171 315.419 158.3 316.25 158.597C316.707 158.719 317.195 158.656 317.607 158.422C318.019 158.188 318.323 157.802 318.453 157.346C318.569 156.888 318.504 156.403 318.271 155.993C318.038 155.582 317.655 155.278 317.202 155.143V155.143Z" fill="#E6E6E6"/>
<path d="M289.933 104.19C288.866 103.278 287.519 102.759 286.115 102.72C284.785 102.745 283.491 103.163 282.397 103.922C279.927 105.716 278.18 108.334 277.471 111.303C275.661 118.237 278.022 125.709 281.302 131.815C282.96 134.902 284.892 137.832 286.561 140.913C288.171 143.859 289.406 146.995 290.24 150.247C291.939 156.916 292.091 163.885 290.683 170.621C289.25 177.326 286.234 183.965 281.104 188.592C280.768 188.927 280.579 189.383 280.579 189.858C280.579 190.333 280.768 190.789 281.104 191.124C281.44 191.46 281.895 191.649 282.37 191.649C282.845 191.649 283.301 191.46 283.637 191.124C288.19 187.018 291.235 181.386 293.074 175.594C295.102 169.053 295.695 162.151 294.813 155.359C294.414 151.977 293.644 148.649 292.516 145.436C291.295 142.199 289.769 139.085 287.96 136.135C284.593 130.443 281.01 124.686 280.522 117.908C280.283 114.575 280.7 111.101 282.761 108.42C282.648 108.567 282.852 108.314 282.853 108.313C282.978 108.163 283.107 108.017 283.242 107.876C283.497 107.601 283.772 107.345 284.064 107.109C284.002 107.159 283.844 107.265 284.132 107.065C284.276 106.965 284.422 106.87 284.573 106.781C284.695 106.709 284.821 106.645 284.947 106.579C285.021 106.541 285.096 106.505 285.173 106.471C284.999 106.547 285.009 106.547 285.202 106.474C285.343 106.43 286.036 106.28 285.651 106.328C285.78 106.313 285.909 106.305 286.038 106.303C286.093 106.302 286.576 106.327 286.34 106.301C286.064 106.271 286.558 106.35 286.562 106.351C286.717 106.389 286.868 106.437 287.017 106.495C286.644 106.346 287.628 106.899 287.401 106.723C287.744 107.045 288.197 107.224 288.667 107.224C289.138 107.224 289.59 107.045 289.933 106.723C290.551 106.105 290.701 104.787 289.933 104.19L289.933 104.19Z" fill="#E6E6E6"/>
<path d="M152.405 373.361L138.903 376.943L114.102 262.307L141.934 259.827L152.405 373.361Z" fill="#FFB8B8"/>
<path d="M90.6261 375.123L76.8129 377.21L64.673 260.552L92.6093 261.124L90.6261 375.123Z" fill="#FFB8B8"/>
<path d="M83.514 209.123L84.7895 232.932C84.8364 233.808 84.6944 234.683 84.373 235.499C84.0516 236.315 83.5584 237.052 82.9268 237.661C82.2953 238.269 81.5403 238.735 80.7129 239.026C79.8856 239.317 79.0054 239.426 78.132 239.347C76.7045 239.217 75.368 238.59 74.3561 237.574C73.3442 236.559 72.7212 235.221 72.5959 233.793L70.2868 207.469L52.0994 145.742L52.6505 106.061L74.1448 107.163L83.514 209.123Z" fill="#FFB8B8"/>
<path d="M95.0878 267.543C84.3212 263.805 71.8289 263.07 57.6107 265.338C59.6271 241.453 60.7949 219.272 59.8152 201.407H133.116L95.0878 267.543Z" fill="#2F2E41"/>
<path d="M146.343 266.992C135.246 272.862 119.194 275.672 100.599 276.912L77.4515 203.06L134.218 201.958L146.343 266.992Z" fill="#2F2E41"/>
<path d="M174.918 385.345L134.985 386.823C129.87 387.013 129.6 382.62 130.566 377.593L135.293 364.094C145.937 374.522 146.94 375.104 151.503 360.27L165.428 371.269L175.736 373.037C177.18 373.284 178.489 374.035 179.432 375.155C180.375 376.275 180.892 377.693 180.889 379.158C180.887 380.761 180.264 382.301 179.15 383.454C178.037 384.608 176.52 385.286 174.918 385.345Z" fill="#2F2E41"/>
<path d="M114.437 385.345L74.5039 386.823C69.3885 387.013 69.1188 382.62 70.0844 377.593L74.8122 364.094C85.4563 374.522 86.4587 375.104 91.0216 360.27L104.947 371.269L115.255 373.037C116.699 373.284 118.008 374.035 118.951 375.155C119.894 376.275 120.41 377.693 120.408 379.158C120.406 380.761 119.782 382.301 118.669 383.454C117.556 384.608 116.039 385.286 114.437 385.345Z" fill="#2F2E41"/>
<path d="M123.747 47.6406C135.618 47.6406 145.241 38.0173 145.241 26.1464C145.241 14.2755 135.618 4.6522 123.747 4.6522C111.876 4.6522 102.253 14.2755 102.253 26.1464C102.253 38.0173 111.876 47.6406 123.747 47.6406Z" fill="#FFB8B8"/>
<path d="M112.724 64.1745L87.3719 56.459L104.457 31.1064L123.747 39.3736L112.724 64.1745Z" fill="#FFB8B8"/>
<path d="M136.423 208.021C110.361 213.88 81.4303 211.555 56.5084 204.714C62.4765 171.434 59.5951 135.688 53.7527 106.612C49.1797 83.8539 61.2431 64.7569 81.3094 55.3565C85.6226 53.8098 90.1096 52.7994 94.6695 52.3481C108.745 51.101 121.131 61.6553 122.599 75.7099L136.423 208.021Z" fill="#379683"/>
<path d="M68.6334 117.635L50.446 115.43L55.9575 86.7713H68.6334V117.635Z" fill="#379683"/>
<path d="M123.446 29.5497L120.153 28.0863C119.407 27.7557 118.598 27.5914 117.782 27.6046C116.966 27.6178 116.163 27.8082 115.428 28.1627C114.693 28.5173 114.044 29.0274 113.526 29.6578C113.007 30.2881 112.633 31.0237 112.427 31.8134L107.838 40.1047L96.4084 38.2956L96.8076 20.7436C97.328 17.4267 98.5237 14.252 100.32 11.4158C102.117 8.57971 104.477 6.14252 107.254 4.25514C110.03 2.36776 113.165 1.07034 116.463 0.443198C119.762 -0.183949 123.154 -0.127481 126.429 0.609107L126.741 0.679683C132.321 1.94193 139.565 6.03862 143.346 10.3391L150.391 18.3517C150.726 18.7318 150.949 19.1962 151.038 19.6945C151.126 20.1927 151.077 20.7057 150.894 21.1777C150.711 21.6497 150.403 22.0627 150.002 22.3716C149.601 22.6806 149.124 22.8738 148.621 22.9303L138.985 23.9935L123.446 29.5497Z" fill="#2F2E41"/>
<path d="M194.74 176.135L182.398 186.961C182.219 187.118 181.986 187.197 181.749 187.181C181.512 187.165 181.291 187.056 181.135 186.878C180.978 186.7 180.899 186.466 180.915 186.229C180.93 185.993 181.039 185.771 181.217 185.615L193.559 174.789L191.197 172.096L178.855 182.922C178.676 183.078 178.443 183.157 178.206 183.142C177.969 183.126 177.748 183.017 177.592 182.839C177.435 182.66 177.356 182.427 177.371 182.19C177.387 181.953 177.496 181.732 177.674 181.576L190.016 170.75L187.654 168.057L175.312 178.883C175.224 178.96 175.121 179.02 175.009 179.058C174.898 179.096 174.78 179.111 174.663 179.104C174.545 179.096 174.431 179.065 174.325 179.013C174.22 178.961 174.125 178.889 174.048 178.801C173.97 178.712 173.911 178.609 173.873 178.498C173.835 178.386 173.82 178.269 173.827 178.151C173.835 178.034 173.866 177.919 173.918 177.813C173.97 177.708 174.042 177.614 174.131 177.536L186.473 166.71L183.521 163.344L166.079 178.643C164.522 180.009 163.482 181.869 163.132 183.91C162.782 185.952 163.144 188.052 164.157 189.858L111.498 236.047L116.222 241.433L168.847 195.274C170.452 196.541 172.451 197.206 174.495 197.154C176.539 197.101 178.501 196.334 180.039 194.986L197.693 179.501L194.74 176.135Z" fill="#E6E6E6"/>
<path d="M134.769 209.123L136.045 232.932C136.092 233.808 135.95 234.683 135.628 235.499C135.307 236.315 134.814 237.052 134.182 237.661C133.551 238.269 132.796 238.735 131.968 239.026C131.141 239.317 130.261 239.426 129.387 239.347C127.96 239.217 126.623 238.59 125.611 237.574C124.6 236.559 123.977 235.221 123.851 233.793L121.542 207.469L103.355 145.742L103.906 106.061L125.4 107.163L134.769 209.123Z" fill="#FFB8B8"/>
<path d="M127.054 113.226C120.514 106.952 111.881 106.722 102.253 109.368V79.7485C102.253 76.2027 103.661 72.8022 106.168 70.2949C108.676 67.7877 112.076 66.3791 115.622 66.3791C117.254 66.3791 118.869 66.7054 120.373 67.3388C121.877 67.9722 123.24 68.8999 124.38 70.0673C125.52 71.2348 126.416 72.6184 127.013 74.1369C127.611 75.6554 127.899 77.2781 127.861 78.9096L127.054 113.226Z" fill="#379683"/>
</svg>
