<svg width="19" height="25" viewBox="0 0 19 25" fill="none" xmlns="http://www.w3.org/2000/svg">
<path d="M3.77487 22.7408C2.62738 21.4369 1.47994 20.0808 0.749699 18.4639C0.0195066 16.7427 -0.189141 14.7607 0.17598 12.883C0.541101 11.0053 1.37559 9.23193 2.57525 7.71937C2.47096 9.02333 2.94038 10.3794 3.82704 11.3704C3.30545 8.86686 4.13999 6.15464 5.80902 4.17266C7.47806 2.19068 9.77303 0.886666 12.1723 0C10.9726 1.25179 10.8162 3.23377 11.2856 4.90285C11.755 6.57188 12.746 8.03232 13.6327 9.54488C14.5194 11.0574 15.3539 12.6222 15.4061 14.3434C15.8755 13.4567 16.3971 12.57 16.71 11.579C17.023 10.588 17.1795 9.54488 16.9187 8.55386C17.8575 9.70135 18.3791 10.8488 18.6399 12.3092C18.9007 13.7697 18.8485 15.2822 18.6921 16.7427C18.4834 18.3596 18.0662 20.0286 17.1795 21.3847C16.1364 23.0016 14.4673 24.149 12.6418 24.7749C9.40791 25.3487 6.22627 24.8793 3.77487 22.7408Z" fill="#F3705A"/>
<path d="M7.73852 24.6706C12.0154 26.3397 16.2402 21.2804 13.8931 17.3685C13.8931 17.3164 13.8409 17.3164 13.8409 17.2642C14.0496 19.4027 13.528 20.9674 12.537 21.8541C13.0586 20.6024 12.6934 19.1419 12.0676 17.8901C11.4417 16.6905 10.555 15.5952 9.87692 14.4477C9.19886 13.2481 8.67731 11.892 8.99026 10.5359C7.73847 11.4747 6.8518 12.883 6.48668 14.3955C6.12156 15.9081 6.33021 17.5772 7.00828 18.9855C6.22591 18.4117 5.65219 17.4729 5.60002 16.4819C4.76548 17.4729 4.24393 18.7768 4.29606 20.0808C4.29611 22.1149 5.91297 23.9404 7.73852 24.6706Z" fill="#FFD15C"/>
</svg>
