<svg width="20" height="20" viewBox="0 0 20 20" fill="none" xmlns="http://www.w3.org/2000/svg">
<path d="M6.49207 16.104C6.49207 16.1867 6.40206 16.2529 6.28858 16.2529C6.15944 16.2653 6.06944 16.1991 6.06944 16.104C6.06944 16.0213 6.15944 15.9551 6.27293 15.9551C6.39033 15.9427 6.49207 16.0089 6.49207 16.104ZM5.27505 15.9179C5.24766 16.0006 5.32592 16.0957 5.44332 16.1205C5.54506 16.1619 5.66246 16.1205 5.68594 16.0378C5.70942 15.9551 5.63507 15.86 5.51767 15.8228C5.41593 15.7938 5.30244 15.8352 5.27505 15.9179ZM7.0047 15.8476C6.89122 15.8765 6.81295 15.9551 6.82469 16.0502C6.83643 16.1329 6.93818 16.1867 7.05558 16.1577C7.16906 16.1288 7.24732 16.0502 7.23558 15.9675C7.22385 15.8889 7.11819 15.8352 7.0047 15.8476ZM9.57962 0C4.15195 0 0 4.35477 0 10.0908C0 14.6772 2.73144 18.6019 6.63295 19.9832C7.13384 20.0783 7.30994 19.7516 7.30994 19.4827C7.30994 19.2263 7.2982 17.812 7.2982 16.9435C7.2982 16.9435 4.55893 17.5638 3.98368 15.7111C3.98368 15.7111 3.53757 14.5076 2.8958 14.1975C2.8958 14.1975 1.99967 13.5482 2.95841 13.5606C2.95841 13.5606 3.93281 13.6433 4.46892 14.6276C5.32592 16.2239 6.76208 15.7649 7.32168 15.4919C7.41168 14.8302 7.66604 14.3712 7.9478 14.0982C5.76029 13.8418 3.55322 13.5068 3.55322 9.52839C3.55322 8.3911 3.85063 7.82039 4.47675 7.09253C4.37501 6.82372 4.04238 5.71538 4.57849 4.28447C5.39636 4.01565 7.27863 5.40107 7.27863 5.40107C8.06128 5.16948 8.90263 5.04955 9.73615 5.04955C10.5697 5.04955 11.411 5.16948 12.1937 5.40107C12.1937 5.40107 14.0759 4.01152 14.8938 4.28447C15.4299 5.71951 15.0973 6.82372 14.9955 7.09253C15.6217 7.82453 16.0052 8.39524 16.0052 9.52839C16.0052 13.5192 13.7003 13.8377 11.5128 14.0982C11.8728 14.4249 12.178 15.0453 12.178 16.0171C12.178 17.4108 12.1663 19.1354 12.1663 19.4745C12.1663 19.7433 12.3463 20.07 12.8433 19.9749C16.7565 18.6019 19.4097 14.6772 19.4097 10.0908C19.4097 4.35477 15.0073 0 9.57962 0ZM3.80367 14.2636C3.7528 14.305 3.76454 14.4001 3.83106 14.4787C3.89368 14.5449 3.98368 14.5738 4.03455 14.52C4.08542 14.4787 4.07369 14.3836 4.00716 14.305C3.94455 14.2388 3.85454 14.2099 3.80367 14.2636ZM3.38104 13.9287C3.35365 13.9824 3.39278 14.0486 3.47105 14.0899C3.53366 14.1313 3.61192 14.1189 3.63932 14.061C3.66671 14.0072 3.62758 13.9411 3.54931 13.8997C3.47105 13.8749 3.40843 13.8873 3.38104 13.9287ZM4.64893 15.4009C4.58632 15.4547 4.6098 15.5788 4.6998 15.6573C4.78981 15.7524 4.90329 15.7649 4.95416 15.6987C5.00504 15.6449 4.98156 15.5209 4.90329 15.4423C4.8172 15.3472 4.6998 15.3348 4.64893 15.4009ZM4.20282 14.793C4.14021 14.8343 4.14021 14.9419 4.20282 15.037C4.26543 15.1321 4.37109 15.1735 4.42196 15.1321C4.48458 15.0783 4.48458 14.9708 4.42196 14.8757C4.36718 14.7806 4.26543 14.7392 4.20282 14.793Z" fill="#05386B"/>
</svg>
