<svg width="604" height="355" viewBox="0 0 604 355" fill="none" xmlns="http://www.w3.org/2000/svg">
<path d="M557.856 4.37192H345.885V0H249.769V4.37192H36.9249C35.0419 4.37192 33.1775 4.74305 31.4379 5.46412C29.6983 6.18518 28.1176 7.24206 26.7862 8.5744C25.4548 9.90675 24.3987 11.4885 23.6781 13.2293C22.9575 14.9701 22.5866 16.8358 22.5866 18.7201V309.174C22.5866 312.979 24.0973 316.629 26.7862 319.32C29.4751 322.011 33.1221 323.522 36.9249 323.522H557.856C559.739 323.522 561.603 323.151 563.343 322.43C565.082 321.709 566.663 320.652 567.994 319.32C569.326 317.987 570.382 316.406 571.103 314.665C571.823 312.924 572.194 311.058 572.194 309.174V18.7201C572.194 16.8358 571.823 14.9701 571.103 13.2293C570.382 11.4885 569.326 9.90674 567.994 8.57439C566.663 7.24204 565.082 6.18516 563.343 5.4641C561.603 4.74304 559.739 4.37192 557.856 4.37192Z" fill="#05386B"/>
<path d="M552.971 29.7291H41.8098V318.276H552.971V29.7291Z" fill="#379683"/>
<path d="M296.953 21.8595C299.849 21.8595 302.196 19.5107 302.196 16.6132C302.196 13.7158 299.849 11.3669 296.953 11.3669C294.058 11.3669 291.711 13.7158 291.711 16.6132C291.711 19.5107 294.058 21.8595 296.953 21.8595Z" fill="#05386B"/>
<path d="M523.626 66.4529H499.396V42.2058H523.626V66.4529ZM500.45 65.3987H522.573V43.26H500.45V65.3987Z" fill="#3F3D56"/>
<path d="M586.546 313.03H536.66V309.433C536.66 309.339 536.642 309.246 536.606 309.16C536.57 309.073 536.518 308.995 536.452 308.929C536.385 308.862 536.307 308.81 536.22 308.774C536.134 308.738 536.041 308.72 535.948 308.72H518.844C518.75 308.72 518.658 308.738 518.571 308.774C518.485 308.81 518.406 308.862 518.34 308.929C518.274 308.995 518.221 309.073 518.186 309.16C518.15 309.246 518.131 309.339 518.131 309.433V313.03H507.441V309.433C507.441 309.339 507.423 309.246 507.387 309.16C507.351 309.073 507.299 308.995 507.233 308.929C507.167 308.862 507.088 308.81 507.001 308.774C506.915 308.738 506.822 308.72 506.729 308.72H489.625C489.531 308.72 489.439 308.738 489.352 308.774C489.266 308.81 489.187 308.862 489.121 308.929C489.055 308.995 489.002 309.073 488.967 309.16C488.931 309.246 488.912 309.339 488.912 309.433V313.03H478.222V309.433C478.222 309.339 478.204 309.246 478.168 309.16C478.132 309.073 478.08 308.995 478.014 308.929C477.948 308.862 477.869 308.81 477.783 308.774C477.696 308.738 477.603 308.72 477.51 308.72H460.406C460.312 308.72 460.22 308.738 460.133 308.774C460.047 308.81 459.968 308.862 459.902 308.929C459.836 308.995 459.783 309.073 459.748 309.16C459.712 309.246 459.693 309.339 459.693 309.433V313.03H449.004V309.433C449.004 309.339 448.985 309.246 448.949 309.16C448.913 309.073 448.861 308.995 448.795 308.929C448.729 308.862 448.65 308.81 448.564 308.774C448.477 308.738 448.384 308.72 448.291 308.72H431.187C431.094 308.72 431.001 308.738 430.914 308.774C430.828 308.81 430.749 308.862 430.683 308.929C430.617 308.995 430.564 309.073 430.529 309.16C430.493 309.246 430.474 309.339 430.474 309.433V313.03H419.785V309.433C419.785 309.339 419.766 309.246 419.73 309.16C419.695 309.073 419.642 308.995 419.576 308.929C419.51 308.862 419.431 308.81 419.345 308.774C419.258 308.738 419.166 308.72 419.072 308.72H401.968C401.875 308.72 401.782 308.738 401.695 308.774C401.609 308.81 401.53 308.862 401.464 308.929C401.398 308.995 401.346 309.073 401.31 309.16C401.274 309.246 401.255 309.339 401.256 309.433V313.03H390.566V309.433C390.566 309.339 390.547 309.246 390.511 309.16C390.476 309.073 390.423 308.995 390.357 308.929C390.291 308.862 390.212 308.81 390.126 308.774C390.039 308.738 389.947 308.72 389.853 308.72H372.749C372.656 308.72 372.563 308.738 372.476 308.774C372.39 308.81 372.311 308.862 372.245 308.929C372.179 308.995 372.127 309.073 372.091 309.16C372.055 309.246 372.037 309.339 372.037 309.433V313.03H361.347V309.433C361.347 309.339 361.328 309.246 361.292 309.16C361.257 309.073 361.204 308.995 361.138 308.929C361.072 308.862 360.993 308.81 360.907 308.774C360.82 308.738 360.728 308.72 360.634 308.72H226.655C226.561 308.72 226.468 308.738 226.382 308.774C226.295 308.81 226.217 308.862 226.151 308.929C226.084 308.995 226.032 309.073 225.996 309.16C225.96 309.246 225.942 309.339 225.942 309.433V313.03H215.252V309.433C215.252 309.339 215.234 309.246 215.198 309.16C215.162 309.073 215.109 308.995 215.043 308.929C214.977 308.862 214.899 308.81 214.812 308.774C214.726 308.738 214.633 308.72 214.539 308.72H197.436C197.342 308.72 197.249 308.738 197.163 308.774C197.076 308.81 196.998 308.862 196.932 308.929C196.865 308.995 196.813 309.073 196.777 309.16C196.741 309.246 196.723 309.339 196.723 309.433V313.03H186.033V309.433C186.033 309.339 186.015 309.246 185.979 309.16C185.943 309.073 185.891 308.995 185.824 308.929C185.758 308.862 185.68 308.81 185.593 308.774C185.507 308.738 185.414 308.72 185.32 308.72H168.217C168.123 308.72 168.03 308.738 167.944 308.774C167.857 308.81 167.779 308.862 167.713 308.929C167.646 308.995 167.594 309.073 167.558 309.16C167.522 309.246 167.504 309.339 167.504 309.433V313.03H156.814V309.433C156.814 309.339 156.796 309.246 156.76 309.16C156.724 309.073 156.672 308.995 156.605 308.929C156.539 308.862 156.461 308.81 156.374 308.774C156.288 308.738 156.195 308.72 156.101 308.72H138.998C138.904 308.72 138.811 308.738 138.725 308.774C138.638 308.81 138.56 308.862 138.494 308.929C138.428 308.995 138.375 309.073 138.339 309.16C138.303 309.246 138.285 309.339 138.285 309.433V313.03H127.595V309.433C127.595 309.339 127.577 309.246 127.541 309.16C127.505 309.073 127.453 308.995 127.386 308.929C127.32 308.862 127.242 308.81 127.155 308.774C127.069 308.738 126.976 308.72 126.882 308.72H109.779C109.685 308.72 109.592 308.738 109.506 308.774C109.42 308.81 109.341 308.862 109.275 308.929C109.209 308.995 109.156 309.073 109.12 309.16C109.084 309.246 109.066 309.339 109.066 309.433V313.03H98.3762V309.433C98.3762 309.339 98.3578 309.246 98.322 309.16C98.2862 309.073 98.2337 308.995 98.1675 308.929C98.1013 308.862 98.0227 308.81 97.9363 308.774C97.8498 308.738 97.7571 308.72 97.6635 308.72H80.5598C80.4662 308.72 80.3735 308.738 80.2871 308.774C80.2006 308.81 80.122 308.862 80.0558 308.929C79.9897 308.995 79.9372 309.073 79.9014 309.16C79.8656 309.246 79.8471 309.339 79.8471 309.433V313.03H69.1573V309.433C69.1573 309.339 69.1388 309.246 69.103 309.16C69.0672 309.073 69.0147 308.995 68.9485 308.929C68.8824 308.862 68.8038 308.81 68.7173 308.774C68.6309 308.738 68.5382 308.72 68.4446 308.72H51.3408C51.2473 308.72 51.1546 308.738 51.0681 308.774C50.9816 308.81 50.9031 308.862 50.8369 308.929C50.7707 308.995 50.7182 309.073 50.6824 309.16C50.6466 309.246 50.6282 309.339 50.6282 309.433V313.03H17.846C13.3098 313.03 8.95935 314.833 5.75177 318.043C2.54419 321.252 0.74219 325.606 0.742188 330.145V337.884C0.742198 342.424 2.5442 346.777 5.75178 349.987C8.95936 353.197 13.3098 355 17.846 355H586.546C591.083 355 595.433 353.197 598.641 349.987C601.848 346.777 603.65 342.424 603.65 337.884V330.145C603.65 325.606 601.848 321.252 598.641 318.043C595.433 314.833 591.083 313.03 586.546 313.03Z" fill="#05386B"/>
<path d="M521.373 190.513H356.795V96.7527H521.373V190.513ZM358.425 188.882H519.743V98.3833H358.425V188.882Z" fill="#3F3D56"/>
<path d="M219.919 209.265H73.2654V117.951H219.919V209.265ZM74.8949 207.634H218.289V119.581H74.8949V207.634Z" fill="#3F3D56"/>
<path d="M141.78 174.207L141.64 172.383C141.22 168.597 142.481 164.46 145.984 160.254C149.137 156.537 150.889 153.803 150.889 150.648C150.889 147.072 148.647 144.688 144.233 144.618C141.708 144.608 139.24 145.366 137.156 146.792L135.474 142.375C137.787 140.692 141.78 139.57 145.494 139.57C153.552 139.57 157.195 144.548 157.195 149.876C157.195 154.645 154.532 158.08 151.169 162.077C148.086 165.722 146.965 168.808 147.175 172.383L147.245 174.207L141.78 174.207ZM140.239 184.023C140.201 183.451 140.282 182.877 140.478 182.338C140.673 181.799 140.977 181.307 141.372 180.891C141.767 180.476 142.244 180.148 142.773 179.926C143.301 179.705 143.87 179.596 144.443 179.606C146.895 179.606 148.577 181.428 148.577 184.023C148.6 184.585 148.509 185.146 148.31 185.673C148.111 186.199 147.808 186.68 147.418 187.086C147.029 187.492 146.562 187.815 146.044 188.036C145.527 188.256 144.97 188.37 144.408 188.37C143.845 188.37 143.289 188.256 142.771 188.036C142.254 187.815 141.787 187.492 141.397 187.086C141.008 186.68 140.704 186.199 140.505 185.673C140.306 185.146 140.216 184.585 140.239 184.023Z" fill="#05386B"/>
<path d="M434.272 153.824L434.132 152.001C433.712 148.215 434.973 144.078 438.476 139.872C441.629 136.155 443.381 133.421 443.381 130.265C443.381 126.69 441.139 124.306 436.724 124.236C434.2 124.226 431.732 124.984 429.647 126.409L427.966 121.992C430.278 120.309 434.272 119.187 437.985 119.187C446.043 119.187 449.687 124.166 449.687 129.494C449.687 134.262 447.024 137.698 443.661 141.694C440.578 145.34 439.457 148.425 439.667 152.001L439.737 153.824L434.272 153.824ZM432.731 163.64C432.693 163.068 432.774 162.495 432.969 161.956C433.164 161.417 433.469 160.924 433.864 160.509C434.259 160.094 434.736 159.765 435.265 159.544C435.793 159.322 436.362 159.213 436.934 159.223C439.387 159.223 441.069 161.046 441.069 163.64C441.092 164.203 441.001 164.764 440.802 165.29C440.603 165.817 440.3 166.297 439.91 166.703C439.521 167.109 439.053 167.432 438.536 167.653C438.019 167.874 437.462 167.988 436.9 167.988C436.337 167.988 435.781 167.874 435.263 167.653C434.746 167.432 434.278 167.109 433.889 166.703C433.5 166.297 433.196 165.817 432.997 165.29C432.798 164.764 432.707 164.203 432.731 163.64Z" fill="#05386B"/>
<path d="M300.27 283.026C339.098 283.026 370.575 251.527 370.575 212.671C370.575 173.815 339.098 142.317 300.27 142.317C261.441 142.317 229.964 173.815 229.964 212.671C229.964 251.527 261.441 283.026 300.27 283.026Z" fill="#2F2E41"/>
<path d="M273.116 309.015L252.098 305.208L258.915 261.292L279.932 265.099L273.116 309.015Z" fill="#2F2E41"/>
<path d="M321.966 272.714L300.949 268.906L294.133 306.588L315.15 310.396L321.966 272.714Z" fill="#2F2E41"/>
<path d="M329.197 312.448C329.927 308.832 322.707 304.323 313.071 302.377C303.435 300.43 295.033 301.783 294.303 305.399C293.574 309.015 300.794 313.524 310.43 315.471C320.065 317.417 328.468 316.064 329.197 312.448Z" fill="#2F2E41"/>
<path d="M285.422 311.313C285.906 307.656 278.399 303.644 268.654 302.352C258.909 301.06 250.617 302.978 250.133 306.634C249.649 310.291 257.156 314.303 266.901 315.595C276.646 316.887 284.938 314.97 285.422 311.313Z" fill="#2F2E41"/>
<path d="M305.192 219.507C318.462 219.507 329.22 208.742 329.22 195.462C329.22 182.182 318.462 171.417 305.192 171.417C291.921 171.417 281.163 182.182 281.163 195.462C281.163 208.742 291.921 219.507 305.192 219.507Z" fill="white"/>
<path d="M315.067 194.858C319.491 194.858 323.077 191.27 323.077 186.843C323.077 182.416 319.491 178.828 315.067 178.828C310.644 178.828 307.058 182.416 307.058 186.843C307.058 191.27 310.644 194.858 315.067 194.858Z" fill="#3F3D56"/>
<path d="M367.653 210.618C386.577 206.277 400.813 197.939 399.452 191.994C398.09 186.049 381.645 184.749 362.722 189.09C343.798 193.43 329.561 201.768 330.923 207.713C332.285 213.658 348.729 214.958 367.653 210.618Z" fill="#2F2E41"/>
<path d="M229.645 233.584C248.569 229.244 262.806 220.905 261.444 214.961C260.082 209.016 243.638 207.715 224.714 212.056C205.79 216.397 191.554 224.735 192.915 230.679C194.277 236.624 210.722 237.925 229.645 233.584Z" fill="#2F2E41"/>
<path d="M280.96 240.397C280.585 242.468 280.622 244.593 281.068 246.651C281.514 248.708 282.36 250.657 283.559 252.387C284.758 254.117 286.285 255.594 288.054 256.733C289.823 257.872 291.799 258.651 293.869 259.026C295.939 259.401 298.063 259.364 300.119 258.918C302.175 258.472 304.122 257.625 305.851 256.425C307.58 255.226 309.055 253.697 310.194 251.927C311.332 250.157 312.111 248.179 312.486 246.108C314.062 237.396 307.331 234.314 298.625 232.737C289.92 231.159 282.536 231.685 280.96 240.397Z" fill="white"/>
<path d="M148.507 10.6986H32.9058V120.738H148.507V10.6986Z" fill="#022547"/>
<path d="M135.37 23.8442H46.0422V92.2012H135.37V23.8442Z" fill="white"/>
<path d="M94.5422 100.266H45.9537V102.825H94.5422V100.266Z" fill="#F2F2F2"/>
<path d="M94.5422 107.943H45.9537V110.502H94.5422V107.943Z" fill="#F2F2F2"/>
<path d="M61.9368 68.2774C67.5862 68.2774 72.1659 63.6945 72.1659 58.0412C72.1659 52.3878 67.5862 47.8049 61.9368 47.8049C56.2874 47.8049 51.7076 52.3878 51.7076 58.0412C51.7076 63.6945 56.2874 68.2774 61.9368 68.2774Z" fill="#3F3D56"/>
<path d="M90.7063 68.2774C96.3557 68.2774 100.935 63.6945 100.935 58.0412C100.935 52.3878 96.3557 47.8049 90.7063 47.8049C85.0569 47.8049 80.4771 52.3878 80.4771 58.0412C80.4771 63.6945 85.0569 68.2774 90.7063 68.2774Z" fill="#05386B"/>
<path d="M119.476 68.2774C125.125 68.2774 129.705 63.6945 129.705 58.0412C129.705 52.3878 125.125 47.8049 119.476 47.8049C113.826 47.8049 109.247 52.3878 109.247 58.0412C109.247 63.6945 113.826 68.2774 119.476 68.2774Z" fill="#E6E6E6"/>
<path d="M90.7063 22.2144C93.531 22.2144 95.8209 19.9229 95.8209 17.0963C95.8209 14.2696 93.531 11.9781 90.7063 11.9781C87.8816 11.9781 85.5917 14.2696 85.5917 17.0963C85.5917 19.9229 87.8816 22.2144 90.7063 22.2144Z" fill="white"/>
<path d="M203.492 223.767H87.8904V333.807H203.492V223.767Z" fill="#022547"/>
<path d="M190.355 236.913H101.027V305.27H190.355V236.913Z" fill="white"/>
<path d="M152 248.147H120.683V279.485H152V248.147Z" fill="#05386B"/>
<path d="M132.672 255.983V294.036H170.699V255.983H132.672ZM169.049 292.386H134.321V257.634H169.049V292.386Z" fill="#3F3D56"/>
<path d="M149.527 312.055H100.938V314.614H149.527V312.055Z" fill="#F2F2F2"/>
<path d="M145.691 235.283C148.516 235.283 150.806 232.992 150.806 230.165C150.806 227.338 148.516 225.047 145.691 225.047C142.866 225.047 140.576 227.338 140.576 230.165C140.576 232.992 142.866 235.283 145.691 235.283Z" fill="white"/>
<path d="M504.468 190.824H388.867V300.864H504.468V190.824Z" fill="#022547"/>
<path d="M491.332 203.97H402.004V272.327H491.332V203.97Z" fill="white"/>
<path d="M456.276 257.483H437.059V263.182H456.276V257.483Z" fill="#3F3D56"/>
<path d="M479.509 213.115H413.827V215.557H479.509V213.115Z" fill="#3F3D56"/>
<path d="M479.509 220.849H413.827V223.291H479.509V220.849Z" fill="#3F3D56"/>
<path d="M479.509 228.583H413.827V231.025H479.509V228.583Z" fill="#3F3D56"/>
<path d="M479.509 236.317H413.827V238.759H479.509V236.317Z" fill="#3F3D56"/>
<path d="M479.509 244.051H413.827V246.493H479.509V244.051Z" fill="#3F3D56"/>
<path d="M450.504 279.112H401.915V281.671H450.504V279.112Z" fill="#F2F2F2"/>
<path d="M469.683 285.509H401.915V288.068H469.683V285.509Z" fill="#F2F2F2"/>
<path d="M446.668 202.34C449.492 202.34 451.782 200.049 451.782 197.222C451.782 194.395 449.492 192.104 446.668 192.104C443.843 192.104 441.553 194.395 441.553 197.222C441.553 200.049 443.843 202.34 446.668 202.34Z" fill="white"/>
</svg>
