<svg width="23" height="25" viewBox="0 0 23 25" fill="none" xmlns="http://www.w3.org/2000/svg">
<path d="M21.9221 17.5637V7.43627C21.9221 6.71912 21.5395 6.05647 20.9184 5.6979L12.1478 0.634164C11.5268 0.275591 10.7616 0.275591 10.1405 0.634164L1.36986 5.6979C0.74881 6.05647 0.366211 6.71912 0.366211 7.43627V17.5637C0.366211 18.2809 0.74881 18.9435 1.36986 19.3021L10.1405 24.3658C10.7615 24.7244 11.5267 24.7244 12.1478 24.3658L20.9184 19.3021C21.5395 18.9435 21.9221 18.2809 21.9221 17.5637Z" fill="#C3DDFF"/>
<path d="M20.9184 19.3021C21.23 19.1221 21.4814 18.8655 21.6547 18.564L11.144 12.4956V24.6347C11.4906 24.6347 11.8372 24.545 12.1477 24.3658L20.9184 19.3021Z" fill="#A4CCFF"/>
<path d="M10.1405 0.634396L1.36986 5.69813C0.74881 6.0567 0.366211 6.71935 0.366211 7.4365V17.564C0.366211 18.2811 0.74881 18.9438 1.36986 19.3023L10.1405 24.3661C10.451 24.5453 10.7976 24.635 11.1441 24.635V0.365479C10.7976 0.365479 10.451 0.455134 10.1405 0.634396Z" fill="#A4CCFF"/>
<path d="M11.1442 12.5L21.6532 6.43262C21.48 6.1325 21.229 5.87721 20.9185 5.6979L12.1479 0.634164C11.5269 0.275591 10.7617 0.275591 10.1406 0.634164L1.36998 5.6979C1.05946 5.87716 0.80851 6.1325 0.635254 6.43262L11.1442 12.5Z" fill="#DBEAFF"/>
<path d="M10.1406 0.634152L1.36998 5.69789C1.05946 5.87715 0.80851 6.13249 0.635254 6.43261L11.1442 12.5V0.365234C10.7977 0.365234 10.4512 0.45489 10.1406 0.634152Z" fill="#C3DDFF"/>
<path d="M1.36969 19.3021C1.05804 19.1221 0.806606 18.8655 0.633301 18.564L11.144 12.4956V24.6347C10.7974 24.6347 10.4509 24.545 10.1404 24.3658L1.36969 19.3021Z" fill="#8BB3EA"/>
<path d="M21.1016 5.38071L12.331 0.316981C11.599 -0.10566 10.6895 -0.10566 9.95743 0.316981L1.18676 5.38071C0.454724 5.80331 0 6.59097 0 7.43625V17.5637C0 18.409 0.454773 19.1967 1.18676 19.6192L9.95738 24.683C10.3234 24.8943 10.7337 25 11.1441 25C11.5545 25 11.965 24.8943 12.3309 24.683L21.1016 19.6192C21.8336 19.1967 22.2883 18.409 22.2883 17.5637V7.43625C22.2883 6.59097 21.8336 5.80336 21.1016 5.38071ZM1.553 18.9849C1.40958 18.9022 1.28228 18.7985 1.17246 18.6801L9.76157 13.7212C9.93673 13.62 9.99674 13.396 9.89561 13.2209C9.79448 13.0457 9.57049 12.9857 9.39533 13.0868L0.806217 18.0457C0.758557 17.8913 0.73248 17.7293 0.73248 17.5637V7.43625C0.73248 7.27066 0.758508 7.10859 0.806217 6.95423L1.56521 7.39245C1.62288 7.42575 1.68588 7.44157 1.74799 7.44157C1.87456 7.44157 1.99767 7.37589 2.0655 7.2584C2.16663 7.08324 2.10661 6.85925 1.93145 6.75812L1.17246 6.3199C1.28228 6.20143 1.40963 6.09781 1.553 6.01504L10.3236 0.951357C10.467 0.868587 10.6204 0.810086 10.7779 0.774195V10.5428C10.7779 10.7451 10.9419 10.909 11.1441 10.909C11.3464 10.909 11.5104 10.7451 11.5104 10.5428V0.774195C11.6679 0.810086 11.8213 0.868538 11.9647 0.951357L20.7353 6.01509C20.8787 6.09786 21.006 6.20148 21.1158 6.31995L11.1441 12.0771L3.49881 7.66307C3.3236 7.56189 3.09966 7.62196 2.99853 7.79712C2.8974 7.97228 2.95741 8.19627 3.13257 8.2974L10.7779 12.7115V24.2258C10.6204 24.1899 10.467 24.1315 10.3236 24.0487L1.553 18.9849ZM20.7353 18.9849L11.9647 24.0487C11.8213 24.1314 11.6679 24.1899 11.5104 24.2258V12.7114L21.4821 6.95423C21.5298 7.10859 21.5559 7.27066 21.5559 7.43625V17.5637C21.5559 17.728 21.5302 17.8888 21.4833 18.042L20.7223 17.6027C20.547 17.5015 20.3231 17.5616 20.222 17.7367C20.1208 17.9119 20.1809 18.1359 20.356 18.237L21.1185 18.6772C21.0081 18.7969 20.8798 18.9015 20.7353 18.9849Z" fill="#05386B"/>
<path d="M19.3326 16.8004L12.9005 13.0868C12.7253 12.9857 12.5013 13.0457 12.4002 13.2209C12.2991 13.3961 12.3591 13.62 12.5342 13.7212L18.9664 17.4348C19.0241 17.4681 19.0871 17.4839 19.1492 17.4839C19.2757 17.4839 19.3989 17.4181 19.4667 17.3007C19.5679 17.1255 19.5078 16.9015 19.3326 16.8004Z" fill="#05386B"/>
</svg>
