<svg width="21" height="20" viewBox="0 0 21 20" fill="none" xmlns="http://www.w3.org/2000/svg">
<path d="M19.4558 0H1.49192C0.668792 0 0 0.647322 0 1.44196V18.558C0 19.3527 0.668792 20 1.49192 20H19.4558C20.2789 20 20.9524 19.3527 20.9524 18.558V1.44196C20.9524 0.647322 20.2789 0 19.4558 0ZM6.33248 17.1429H3.22704V7.59821H6.33716V17.1429H6.33248ZM4.77976 6.29464C3.78359 6.29464 2.97917 5.52232 2.97917 4.57589C2.97917 3.62946 3.78359 2.85714 4.77976 2.85714C5.77126 2.85714 6.58036 3.62946 6.58036 4.57589C6.58036 5.52679 5.77594 6.29464 4.77976 6.29464ZM17.9732 17.1429H14.8678V12.5C14.8678 11.3929 14.8444 9.96875 13.2543 9.96875C11.6361 9.96875 11.3882 11.1741 11.3882 12.4196V17.1429H8.28274V7.59821H11.2619V8.90179H11.304C11.7202 8.15179 12.7351 7.36161 14.2457 7.36161C17.3886 7.36161 17.9732 9.33929 17.9732 11.9107V17.1429Z" fill="#05386B"/>
</svg>
