<svg width="45" height="45" viewBox="0 0 45 45" fill="none" xmlns="http://www.w3.org/2000/svg">
<path d="M28.3268 21.5945L27.22 21.2485V16.5154C27.22 15.6818 26.5416 15.0034 25.7079 15.0034H23.2775C22.4438 15.0034 21.7655 15.6818 21.7655 16.5154V16.8864L5.83697 21.0781H1.58196C0.748289 21.0781 0.0699463 21.7564 0.0699463 22.5901V31.2687C0.0699463 32.1024 0.748289 32.7807 1.58196 32.7807H2.49947V41.0304C2.08625 41.2585 1.80558 41.6984 1.80558 42.2028V43.5914C1.80558 44.3295 2.406 44.9299 3.14414 44.9299H7.30972C8.04786 44.9299 8.64828 44.3295 8.64828 43.5914V42.2028C8.64828 41.6981 8.36735 41.2581 7.95379 41.0301V36.9465H9.21923C9.52447 36.9465 9.78778 36.7323 9.85007 36.4334L10.4109 33.7397L21.7655 36.1301V36.4756C21.7655 37.3093 22.4438 37.9877 23.2775 37.9877H25.7079C26.5416 37.9877 27.22 37.3093 27.22 36.4756V32.6096L28.3268 32.2638C29.3257 31.9517 29.9968 31.0387 29.9968 29.9922V23.8659C29.9969 22.8195 29.3257 21.9066 28.3268 21.5945ZM5.85544 32.7807L6.66523 32.9511V40.8638H3.78811V32.7806H5.85544V32.7807ZM7.35972 43.5915C7.35972 43.619 7.3373 43.6414 7.30981 43.6414H3.14414C3.11664 43.6414 3.09422 43.619 3.09422 43.5915V42.2029C3.09422 42.1754 3.11664 42.153 3.14414 42.153H7.30972C7.33721 42.153 7.35963 42.1754 7.35963 42.2029V43.5915H7.35972ZM8.69527 35.6578H7.95387V33.2224L9.14999 33.4742L8.69527 35.6578ZM25.708 36.699H23.2776C23.1544 36.699 23.0542 36.5988 23.0542 36.4756V21.9836C23.0542 21.6277 22.7658 21.3393 22.4099 21.3393C22.054 21.3393 21.7656 21.6277 21.7656 21.9836V34.8133L7.44039 31.7975C7.43979 31.7974 7.4391 31.7973 7.4385 31.7971L6.56557 31.6134V30.8039C6.56557 30.448 6.27717 30.1596 5.92125 30.1596C5.56533 30.1596 5.27693 30.448 5.27693 30.8039V31.4921H3.14379H1.58196C1.45876 31.4921 1.35859 31.3919 1.35859 31.2687V22.5901C1.35859 22.4669 1.45876 22.3667 1.58196 22.3667H5.27693V27.7971C5.27693 28.153 5.56533 28.4414 5.92125 28.4414C6.27717 28.4414 6.56557 28.153 6.56557 27.7971V22.2189L21.7656 18.2189V18.9768C21.7656 19.3327 22.054 19.6211 22.4099 19.6211C22.7658 19.6211 23.0542 19.3327 23.0542 18.9768V16.5155C23.0542 16.3923 23.1544 16.2921 23.2776 16.2921H25.708C25.8311 16.2921 25.9314 16.3923 25.9314 16.5155V21.715V21.7285V36.4757C25.9313 36.5988 25.8311 36.699 25.708 36.699ZM28.7083 29.9922C28.7083 30.4722 28.4005 30.8909 27.9425 31.034L27.22 31.2598V22.5986L27.9425 22.8244C28.4005 22.9675 28.7083 23.3861 28.7083 23.866V29.9922Z" fill="#05386B"/>
<path d="M22.7155 3.72729C20.9246 3.72729 19.4677 5.18432 19.4677 6.97519C19.4677 8.76607 20.9246 10.223 22.7155 10.223C23.389 10.223 24.0152 10.0168 24.5346 9.66442L24.8835 10.0133C25.0093 10.1391 25.1743 10.202 25.3391 10.202C25.504 10.202 25.669 10.1391 25.7948 10.0133C26.0464 9.76159 26.0464 9.35369 25.7948 9.10206L25.4372 8.74442C25.7695 8.23497 25.9634 7.62751 25.9634 6.97528C25.9633 5.18424 24.5062 3.72729 22.7155 3.72729ZM22.7155 8.93428C21.6352 8.93428 20.7563 8.05542 20.7563 6.97511C20.7563 5.89479 21.6351 5.01585 22.7155 5.01585C23.7958 5.01585 24.6747 5.89471 24.6747 6.97511C24.6747 7.26943 24.6091 7.54864 24.4922 7.79941L24.1289 7.4361C23.8772 7.18456 23.4693 7.18456 23.2177 7.4361C22.9661 7.68781 22.9661 8.09571 23.2177 8.34734L23.5952 8.72483C23.3304 8.8585 23.0317 8.93428 22.7155 8.93428Z" fill="#05386B"/>
<path d="M35.2159 9.5786V4.37162C35.2159 4.01569 34.9275 3.72729 34.5716 3.72729C34.2156 3.72729 33.9272 4.01569 33.9272 4.37162V9.5786C33.9272 9.93452 34.2156 10.2229 34.5716 10.2229C34.9275 10.2229 35.2159 9.93444 35.2159 9.5786Z" fill="#05386B"/>
<path d="M36.6358 9.88564C36.7485 10.0935 36.9659 10.223 37.2023 10.223H40.676C41.0319 10.223 41.3203 9.93461 41.3203 9.57868C41.3203 9.22276 41.0319 8.93436 40.676 8.93436H38.3912L41.135 4.72342C41.264 4.52531 41.2742 4.27248 41.1616 4.06466C41.0489 3.85676 40.8315 3.72729 40.5951 3.72729H37.3092C36.9532 3.72729 36.6648 4.01569 36.6648 4.37162C36.6648 4.72754 36.9532 5.01594 37.3092 5.01594H39.4062L36.6623 9.22689C36.5333 9.42499 36.5231 9.67782 36.6358 9.88564Z" fill="#05386B"/>
<path d="M28.1282 3.72729C27.7723 3.72729 27.4839 4.01569 27.4839 4.37162V7.95456C27.4839 8.73789 27.8588 9.37465 28.5981 9.84698C28.9873 10.0958 29.4267 10.2221 29.9041 10.2229H29.9076C30.3187 10.2229 30.7046 10.1336 31.0548 9.9572C32.159 9.4012 32.3907 8.55928 32.3907 7.95087V4.37162C32.3907 4.01569 32.1023 3.72729 31.7464 3.72729C31.3905 3.72729 31.1021 4.01569 31.1021 4.37162V7.95087C31.1021 8.20224 31.0308 8.52655 30.4753 8.80636C30.3043 8.89244 30.1186 8.93428 29.9079 8.93428C29.9072 8.93428 29.9065 8.93428 29.9059 8.93428C29.6748 8.93393 29.474 8.87732 29.2921 8.76108C28.8609 8.48566 28.7726 8.23944 28.7726 7.95448V4.37162C28.7725 4.01569 28.484 3.72729 28.1282 3.72729Z" fill="#05386B"/>
<path d="M41.9148 0.944336H18.873C17.6925 0.944336 16.7321 1.90472 16.7321 3.0852V10.8653C16.7321 12.0457 17.6925 13.0061 18.873 13.0061H27.1298C27.4857 13.0061 27.7741 12.7177 27.7741 12.3618C27.7741 12.0059 27.4857 11.7175 27.1298 11.7175H18.873C18.4031 11.7175 18.0208 11.3352 18.0208 10.8653V3.0852C18.0208 2.61528 18.4031 2.23298 18.873 2.23298H41.9148C42.3847 2.23298 42.767 2.61528 42.767 3.0852V10.8653C42.767 11.3352 42.3847 11.7175 41.9148 11.7175H36.487C36.3169 11.7175 36.1537 11.7848 36.033 11.9047L32.7739 15.1412V12.3617C32.7739 12.0058 32.4855 11.7174 32.1296 11.7174H30.1366C29.7807 11.7174 29.4923 12.0058 29.4923 12.3617C29.4923 12.7176 29.7807 13.006 30.1366 13.006H31.4853V16.6889C31.4853 16.949 31.6417 17.1837 31.882 17.2837C31.962 17.3171 32.0461 17.3332 32.1294 17.3332C32.2964 17.3332 32.4605 17.2684 32.5836 17.146L36.7526 13.006H41.9147C43.0952 13.006 44.0556 12.0457 44.0556 10.8652V3.0852C44.0557 1.90472 43.0953 0.944336 41.9148 0.944336Z" fill="#05386B"/>
</svg>
