<svg width="641" height="672" viewBox="0 0 641 672" fill="none" xmlns="http://www.w3.org/2000/svg">
<path d="M376.095 0H100.449V66.9827H376.095V0Z" fill="#E6E6E6"/>
<path d="M107.682 59.7501H368.862V7.23267H107.682V59.7501Z" fill="white"/>
<path d="M339.124 25.6622H205.273V30.0118H339.124V25.6622Z" fill="#5CDB95"/>
<path d="M339.124 36.971H205.273V41.3205H339.124V36.971Z" fill="#5CDB95"/>
<path d="M275.645 112.727H0V179.709H275.645V112.727Z" fill="#E6E6E6"/>
<path d="M7.2323 172.477H268.413V119.959H7.2323V172.477Z" fill="white"/>
<path d="M238.674 138.389H104.824V142.738H238.674V138.389Z" fill="#E6E6E6"/>
<path d="M238.674 149.698H104.824V154.047H238.674V149.698Z" fill="#E6E6E6"/>
<path d="M275.645 225.453H0V292.436H275.645V225.453Z" fill="#E6E6E6"/>
<path d="M7.2323 285.203H268.413V232.686H7.2323V285.203Z" fill="white"/>
<path d="M238.674 251.115H104.824V255.465H238.674V251.115Z" fill="#E6E6E6"/>
<path d="M238.674 262.424H104.824V266.774H238.674V262.424Z" fill="#E6E6E6"/>
<path d="M431.451 101.195L449.245 144.994L460.194 175.106L488.938 132.676C488.938 132.676 471.144 114.883 471.144 91.6145L431.451 101.195Z" fill="#FFB8B8"/>
<path d="M378.072 566.559L369.859 607.62L393.127 626.782L402.709 566.559H378.072Z" fill="#FFB8B8"/>
<path d="M512.206 556.978L509.468 606.252L532.736 602.145L535.474 559.715L512.206 556.978Z" fill="#FFB8B8"/>
<path d="M451.298 123.779C468.684 123.779 482.778 109.685 482.778 92.2988C482.778 74.9126 468.684 60.8183 451.298 60.8183C433.912 60.8183 419.817 74.9126 419.817 92.2988C419.817 109.685 433.912 123.779 451.298 123.779Z" fill="#FFB8B8"/>
<path d="M523.155 223.011C523.155 223.011 534.105 318.821 525.893 318.821C517.681 318.821 477.988 310.609 469.776 303.765C461.563 296.922 435.558 299.659 435.558 299.659C435.558 299.659 416.396 314.715 406.815 306.503C397.233 298.291 413.658 202.48 413.658 202.48L409.552 143.626C409.552 143.626 427.345 138.151 435.558 146.363L438.062 143.393L445.18 134.989L456.088 144.994L456.212 145.46L460.194 160.05C460.194 160.05 466.025 140.231 470.145 136.098C470.426 135.802 470.767 135.569 471.144 135.413C475.25 134.045 482.467 124.417 482.467 124.417L498.71 132.717L499.887 134.045L534.105 143.626L523.155 223.011Z" fill="#379683"/>
<path d="M415.027 301.028L412.289 314.715C412.289 314.715 397.234 317.453 401.34 346.196L390.39 447.481L372.597 573.403L405.446 577.509L468.407 391.363L506.731 567.928H540.949L534.105 370.833C534.105 370.833 539.58 329.771 520.418 310.609C501.256 291.447 431.451 290.078 415.027 301.028Z" fill="#2F2E41"/>
<path d="M383.546 610.358C383.546 610.358 386.284 599.408 379.44 598.04C372.597 596.671 367.122 602.146 365.753 604.883C364.384 607.621 332.904 645.945 332.904 645.945C332.904 645.945 309.636 673.319 343.854 671.95C378.071 670.582 379.44 654.157 379.44 654.157C379.44 654.157 379.44 651.419 386.284 651.419C393.127 651.419 410.921 641.839 409.552 634.995C408.183 628.151 396.673 604.497 396.673 604.497C396.673 604.497 389.021 624.045 383.546 610.358Z" fill="#2F2E41"/>
<path d="M535.474 593.933C535.474 593.933 523.155 585.721 516.312 591.196C509.468 596.671 506.731 598.04 506.731 598.04L506.62 598.868C505.403 609 506.516 619.276 509.874 628.912C510.685 631.345 509.089 633.097 509.468 634.995C511.521 645.26 513.575 658.263 534.105 652.788C554.636 647.313 535.474 593.933 535.474 593.933Z" fill="#2F2E41"/>
<path d="M525.893 331.14C525.893 331.14 502.625 355.777 516.312 363.989C529.999 372.201 538.211 337.983 538.211 337.983L525.893 331.14Z" fill="#FFB8B8"/>
<path d="M374.069 74.7219C374.069 74.7219 390.214 44.9271 374.875 40.5135C359.535 36.0998 360.405 71.2787 360.405 71.2787L374.069 74.7219Z" fill="#FFB8B8"/>
<path d="M516.312 147.732L534.105 143.626C534.105 143.626 553.267 158.681 560.111 210.693C566.954 262.704 540.949 346.196 540.949 346.196L520.418 333.877C520.418 333.877 531.368 268.179 529.999 258.598C528.63 249.017 520.418 212.061 520.418 212.061L516.312 147.732Z" fill="#379683"/>
<path d="M426.673 58.483L420.947 56.4007C420.947 56.4007 432.92 44.4275 449.579 45.4687L444.893 40.7835C444.893 40.7835 456.346 36.619 466.758 47.5509C472.231 53.2976 478.563 60.0526 482.511 67.6619H488.643L486.084 72.7809L495.042 77.8998L485.847 76.9803C486.718 81.3997 486.418 85.97 484.978 90.2378L482.895 95.964C482.895 95.964 474.566 79.3058 474.566 77.2235V82.4292C474.566 82.4292 468.84 77.744 468.84 74.6206L465.716 78.2646L464.155 72.5383L444.894 78.2646L448.017 73.5795L436.044 75.1412L440.729 69.4149C440.729 69.4149 429.399 77.2429 426.674 81.9086C423.774 86.8737 419.386 94.9229 419.386 94.9229L416.262 89.7172C416.262 89.7172 411.577 66.2915 426.673 58.483Z" fill="#2F2E41"/>
<path d="M416.396 146.363L409.552 143.626L373.281 138.835L375.334 73.8211L358.909 58.7652C358.909 58.7652 313.742 140.888 360.278 171C406.815 201.112 421.87 206.587 421.87 206.587L416.396 146.363Z" fill="#379683"/>
<path d="M138.04 15C131.236 15 126.828 17.2994 123.368 21.4003C122.74 22.1442 122.934 23.1641 123.809 23.7117L127.487 26.0116C128.371 26.5646 129.629 26.4353 130.322 25.7199C132.457 23.5134 134.041 22.243 137.377 22.243C139.999 22.243 143.243 23.6351 143.243 25.7327C143.243 27.3184 141.656 28.1328 139.067 29.3302C136.047 30.7266 132.051 32.4644 132.051 36.8118V37.5C132.051 38.432 132.967 39.1875 134.097 39.1875H140.275C141.405 39.1875 142.321 38.432 142.321 37.5V37.0941C142.321 34.0805 153 33.955 153 25.8C153 19.6586 145.276 15 138.04 15ZM137.186 41.2588C133.93 41.2588 131.28 43.4438 131.28 46.1295C131.28 48.815 133.93 51 137.186 51C140.442 51 143.091 48.815 143.091 46.1294C143.091 43.4437 140.442 41.2588 137.186 41.2588Z" fill="#5CDB95"/>
<path d="M37.0401 128C30.2356 128 25.8282 130.299 22.368 134.4C21.7403 135.144 21.9338 136.164 22.8094 136.712L26.4869 139.012C27.3712 139.565 28.6295 139.435 29.3218 138.72C31.4572 136.513 33.0412 135.243 36.3768 135.243C38.9994 135.243 42.2434 136.635 42.2434 138.733C42.2434 140.318 40.6563 141.133 38.0667 142.33C35.0469 143.727 31.0507 145.464 31.0507 149.812V150.5C31.0507 151.432 31.9667 152.188 33.0967 152.188H39.2749C40.4049 152.188 41.3209 151.432 41.3209 150.5V150.094C41.3209 147.08 52 146.955 52 138.8C52.0001 132.659 44.2763 128 37.0401 128ZM36.1859 154.259C32.9296 154.259 30.2805 156.444 30.2805 159.129C30.2805 161.815 32.9296 164 36.1859 164C39.4421 164 42.0912 161.815 42.0912 159.129C42.0912 156.444 39.4421 154.259 36.1859 154.259Z" fill="#E6E6E6"/>
<path d="M37.0401 241C30.2356 241 25.8282 243.299 22.368 247.4C21.7403 248.144 21.9338 249.164 22.8094 249.712L26.4869 252.012C27.3712 252.565 28.6295 252.435 29.3218 251.72C31.4572 249.513 33.0412 248.243 36.3768 248.243C38.9994 248.243 42.2434 249.635 42.2434 251.733C42.2434 253.318 40.6563 254.133 38.0667 255.33C35.0469 256.727 31.0507 258.464 31.0507 262.812V263.5C31.0507 264.432 31.9667 265.188 33.0967 265.188H39.2749C40.4049 265.188 41.3209 264.432 41.3209 263.5V263.094C41.3209 260.08 52 259.955 52 251.8C52.0001 245.659 44.2763 241 37.0401 241ZM36.1859 267.259C32.9296 267.259 30.2805 269.444 30.2805 272.129C30.2805 274.815 32.9296 277 36.1859 277C39.4421 277 42.0912 274.815 42.0912 272.129C42.0912 269.444 39.4421 267.259 36.1859 267.259Z" fill="#E6E6E6"/>
</svg>
