<svg width="21" height="24" viewBox="0 0 21 24" fill="none" xmlns="http://www.w3.org/2000/svg">
<path d="M10.1076 0C5.53464 0 2.57273 1.53295 0.247315 4.26684C-0.174523 4.76278 -0.0444713 5.44275 0.543971 5.80781L3.01542 7.34105C3.6097 7.70972 4.45527 7.62352 4.92054 7.14661C6.35563 5.67562 7.42017 4.82869 9.66182 4.82869C11.4243 4.82869 13.6044 5.75677 13.6044 7.15514C13.6044 8.21227 12.5378 8.75517 10.7975 9.55345C8.76807 10.4844 6.08247 11.643 6.08247 14.5412V15C6.08247 15.6213 6.69807 16.125 7.45747 16.125H11.6094C12.3688 16.125 12.9844 15.6213 12.9844 15V14.7294C12.9844 12.7203 20.1613 12.6367 20.1613 7.2C20.1613 3.10575 14.9706 0 10.1076 0ZM9.53349 17.5059C7.34517 17.5059 5.56484 18.9625 5.56484 20.753C5.56484 22.5434 7.34517 24 9.53349 24C11.7218 24 13.5021 22.5434 13.5021 20.7529C13.5021 18.9625 11.7218 17.5059 9.53349 17.5059Z" fill="#379683"/>
</svg>
