<svg width="147" height="143" viewBox="0 0 147 143" fill="none" xmlns="http://www.w3.org/2000/svg">
<path d="M123.179 41.5801L85.8745 48.2094L62.1978 18.6286C60.54 16.5574 57.2087 17.4735 56.8433 20.101L51.6203 57.6285L16.1712 71.0053C13.689 71.9419 13.5308 75.393 15.9168 76.5527L49.9936 93.1167L51.7612 130.965C51.8849 133.615 55.1182 134.832 56.9586 132.921L83.2419 105.631L119.784 115.645C122.342 116.347 124.499 113.647 123.25 111.307L105.418 77.8763L126.234 46.2175C127.692 44.0009 125.791 41.1158 123.179 41.5801Z" fill="#FFDC64"/>
<path d="M62.1978 18.6286C60.54 16.5574 57.2087 17.4735 56.8433 20.101L51.6203 57.6285L16.1712 71.0053C13.689 71.9419 13.5308 75.393 15.9168 76.5527L49.9936 93.1167L51.7612 130.965C51.8849 133.615 55.1182 134.832 56.9586 132.921L62.8248 126.83C52.8112 86.6192 63.6356 53.3869 73.9046 33.2547L62.1978 18.6286Z" fill="#FFC850"/>
<path d="M127.7 41.9265C126.632 40.306 124.782 39.5099 122.871 39.8495L86.5938 46.2962L75.104 31.9411C74.4972 31.1833 73.3914 31.0601 72.6334 31.6672C71.8756 32.2737 71.7529 33.3799 72.3594 34.1375L84.5015 49.3073C84.9036 49.8096 85.5481 50.0521 86.1814 49.9395L123.486 43.3102C124.226 43.1786 124.627 43.6509 124.765 43.8599C124.902 44.069 125.178 44.6232 124.765 45.2514L103.949 76.9107C103.595 77.4483 103.564 78.1359 103.867 78.7036L121.699 112.133C122.053 112.797 121.728 113.324 121.571 113.519C121.415 113.715 120.974 114.149 120.248 113.95L83.7061 103.936C83.086 103.766 82.4216 103.949 81.9757 104.412L55.692 131.702C55.1703 132.244 54.5691 132.097 54.3346 132.008C54.1001 131.92 53.551 131.634 53.5159 130.883L52.6035 111.346C52.5583 110.376 51.7353 109.627 50.7657 109.672C49.7946 109.718 49.0468 110.541 49.0919 111.51L50.0044 131.047C50.0951 132.986 51.2798 134.615 53.0962 135.299C54.9125 135.982 56.8776 135.539 58.2234 134.141L83.7831 107.602L119.318 117.341C120.181 117.577 121.052 117.572 121.859 117.35C122.805 117.09 123.663 116.532 124.317 115.714C125.528 114.198 125.713 112.192 124.8 110.479L107.459 77.9701L127.702 47.1834C128.769 45.5615 128.768 43.5474 127.7 41.9265Z" fill="#05386B"/>
<path d="M48.7327 103.816C48.7779 104.786 49.6009 105.535 50.5704 105.49C50.7039 105.483 50.8328 105.463 50.9562 105.429C51.7314 105.216 52.2835 104.488 52.2442 103.652L51.7483 93.0353C51.7183 92.3924 51.3395 91.8174 50.7611 91.5365L16.6845 74.9724C16.0083 74.6437 15.9621 74.0264 15.9737 73.7762C15.9852 73.5261 16.0876 72.9156 16.7912 72.6501L52.2401 59.2734C52.842 59.0464 53.2718 58.5084 53.3606 57.8712L58.5834 20.344C58.6871 19.5994 59.2598 19.3643 59.5012 19.298C59.7427 19.2315 60.355 19.1405 60.8249 19.7273L67.2556 27.7615C67.8626 28.5192 68.9684 28.6422 69.7262 28.0354C70.4841 27.4289 70.6067 26.3227 70.0003 25.5651L63.5695 17.5307C62.3565 16.0157 60.4408 15.3939 58.5691 15.9086C56.698 16.4232 55.3692 17.9371 55.1016 19.8595L50.0224 56.3533L15.5501 69.3611C13.7344 70.0463 12.5509 71.6764 12.4618 73.6153C12.3728 75.554 13.402 77.2856 15.1478 78.1342L48.2857 94.242L48.7327 103.816Z" fill="#05386B"/>
</svg>
